<?xml version="1.0" standalone="yes"?>
<svg xmlns="http://www.w3.org/2000/svg" width="360" height="360">
<path style="fill:#f8f8f8; stroke:none;" d="M0 0C3.69867 1.552 8.01718 1 12 1L32 1L105 1L360 1C356.301 -0.552032 351.983 0 348 0L328 0L255 0L0 0z"/>
<path style="fill:#c5c5c5; stroke:none;" d="M0 1C3.43454 2.44119 7.29758 2 11 2L32 2L105 2L360 2C356.301 0.447968 351.983 1 348 1L328 1L255 1L0 1z"/>
<path style="fill:#cbcbcb; stroke:none;" d="M0 2L0 8L360 8L360 2L0 2z"/>
<path style="fill:#cccccc; stroke:none;" d="M0 8L0 360L360 360L360 8L0 8z"/>
<path style="fill:#f2f2f2; stroke:none;" d="M106 235C109.287 235.43 108.95 238.04 109 241C109.874 238.948 109.953 237.253 110 235C111.513 240.266 111.19 246.469 112 252C124.618 253.49 138.225 252 151 252L232 252L262 252C265.221 252 270.685 252.968 273.397 250.821C275.739 248.966 274.999 244.607 275 242L275 217L275 165C275 160.478 276.898 150.321 273.397 146.894C269.332 142.915 258.269 145 253 145C252.581 135.388 248.499 126.291 246.35 117C245.623 113.856 245.32 109.004 241.853 107.619C238.762 106.384 235.028 108.22 232 108.884C223.884 110.665 216.111 113.725 208 115.399C178.391 121.51 149.269 131.134 120 138.779C111.981 140.873 103.984 143.039 96 145.255C92.7863 146.147 88.9455 146.442 86.7423 149.279C82.3806 154.893 88.0069 166.003 89.5255 172C94.8426 192.999 101.621 213.782 106 235z"/>
<path style="fill:#cccccc; stroke:none;" d="M216 122C217.769 122.779 219.036 122.912 221 123C216.082 124.705 211.044 125.754 206 127C207.506 127.683 208.315 127.826 210 128C208.199 128.562 206.878 128.824 205 129C208.828 130.591 212.237 129.371 216 128C212.012 131.98 208.281 131.652 203 131C205.635 134.016 212.082 133.499 216 135C215.465 138.492 216.734 140.742 218 144L242 144C241.724 137.969 239.96 131.742 238.111 126.001C237.312 123.521 236.392 120.71 233.786 119.607C228.943 117.557 220.933 121.043 216 122z"/>
<path style="fill:#cbcbcb; stroke:none;" d="M138 143C142.72 144.981 148.92 144 154 144L181 144C184.967 144 189.954 144.799 193.791 143.682C197.989 142.46 199.754 137.319 204.001 135.746C207.937 134.288 212.001 136.505 216 136C212.232 132.039 207.096 134.103 203 131C207.957 131.917 212.896 132.679 216 128C212.261 128.989 208.892 129.909 205 130C206.801 129.438 208.122 129.176 210 129C208.494 128.317 207.685 128.174 206 128C210.533 125.806 215.982 124.5 221 124C214.036 121.084 204.89 125.981 198 127.66C184.972 130.836 171.955 134.195 159 137.69C152.154 139.537 145.095 142.548 138 143z"/>
<path style="fill:#e4e4e4; stroke:none;" d="M172 124C173.506 124.683 174.315 124.826 176 125C174.494 124.317 173.685 124.174 172 124z"/>
<path style="fill:#e2e2e2; stroke:none;" d="M107 142C108.846 142.468 110.069 142.301 112 142C109.956 141.226 109.155 141.408 107 142z"/>
<path style="fill:#f3f3f3; stroke:none;" d="M253 144C258.918 146.483 269.968 141.977 273.972 148.344C277.097 153.312 275 164.279 275 170L275 227C275 232.663 275.102 238.337 274.995 243.999C274.949 246.481 274.989 249.282 272.682 250.821C269.42 252.998 263.72 252 260 252L229 252L151 252C138.056 252 124.902 252.752 112 252C111.514 246.245 110.988 240.807 111 235C110.126 237.052 110.047 238.747 110 241L108 234C106.168 238.493 108.811 252.121 114.144 253.682C117.993 254.808 123.018 254 127 254L152 254L236 254L264 254C267.221 254 272.685 254.968 275.397 252.821C277.346 251.277 276.984 248.198 276.999 245.999L277 229L277 169C277 163.214 279.267 151.256 275.972 146.318C274.424 143.998 271.484 144.051 269 144.005C263.671 143.904 258.331 144 253 144z"/>
<path style="fill:#e7e7e7; stroke:none;" d="M85 148C84.3562 150.106 84.0941 151.795 84 154C85.2925 152.077 86.1421 150.16 87 148L85 148z"/>
<path style="fill:#d9d9d9; stroke:none;" d="M108 151C109.506 151.683 110.315 151.826 112 152C110.494 151.317 109.685 151.174 108 151z"/>
<path style="fill:#cbcbcb; stroke:none;" d="M110 211C112.292 205.538 111 197.887 111 192L111 152C107.303 152.159 100.412 152.138 98.0285 155.514C95.2888 159.395 98.5929 166.975 99.7068 171C103.37 184.236 107.381 197.505 110 211z"/>
<path style="fill:#f9f9f9; stroke:none;" d="M124 152C128.215 153.769 133.465 153 138 153L167 153L266 153C261.785 151.231 256.536 152 252 152L223 152L124 152z"/>
<path style="fill:#c9c9c9; stroke:none;" d="M122 240C124.395 234.293 123 226.154 123 220L123 179C123 171.356 120.994 160.717 127 155C125.814 156.186 125.472 156.584 125 158C135.985 153.084 149.051 155 161 155L232 155L254 155C258.769 155.002 262.326 154.64 265 159L256 159C258.89 160.213 261.874 159.998 265 160L265 220C265 225.263 267.218 237.351 263.258 241.397C260.879 243.827 256.065 243 253 243L228 243L124 243C127.699 244.552 132.017 244 136 244L157 244L231 244L255 244C257.693 244 262.125 244.772 264.397 242.972C268.151 239.999 266 227.381 266 223L266 174C266 169.066 267.807 159.565 264.972 155.318C263.081 152.484 258.946 153.006 256 153L234 153L152 153L132 153C129.341 153.005 125.674 152.533 123.603 154.603C121.732 156.474 122.017 159.582 122.001 162L122 177L122 240z"/>
<path style="fill:#dadada; stroke:none;" d="M121 155L121 242C123.395 236.293 122 228.154 122 222L122 178C122 171.049 123.701 161.436 121 155z"/>
<path style="fill:#cccccc; stroke:none;" d="M125 155C122.243 162.363 123 170.255 123 178L123 216C123 224.777 121.17 235.555 123 244C134.307 241.308 147.412 243 159 243L228 243L254 243C256.793 243 261.832 243.908 263.821 241.397C265.349 239.467 264.987 236.293 264.999 234L265 219L265 160L256 160C259.041 159.1 261.831 159.008 265 159C263.149 154.397 259.468 155.002 255 155L233 155L158 155C147.741 155 133.913 152.387 125 158C126.186 156.814 126.528 156.416 127 155L125 155z"/>
<path style="fill:#e1e1e1; stroke:none;" d="M266 156L266 242C268.599 235.806 267 226.686 267 220L267 176C267 169.846 268.395 161.707 266 156z"/>
<path style="fill:#fafafa; stroke:none;" d="M120 159L120 243C122.395 237.293 121 229.154 121 223L121 181C121 174.314 122.599 165.194 120 159z"/>
<path style="fill:#f2f2f2; stroke:none;" d="M227.093 162.843C215.259 167.727 222.487 187.77 234.985 183.181C248.165 178.341 240.543 157.293 227.093 162.843M135 235C146.08 238.275 160.459 236 172 236C198.609 236 225.501 234.909 252 237C249.211 232.27 243.728 229.687 239.285 226.615C229.101 219.572 218.656 212.94 208.424 205.989C203.886 202.906 197.568 196.176 192.004 195.578C185.784 194.909 185.104 205.487 179.074 203.469C172.167 201.158 164.376 192.937 158.715 188.364C156.183 186.32 152.667 183.277 149.39 185.647C146.094 188.031 144.302 193.497 142.49 197C138.044 205.593 131.289 214.344 129.468 224C128.858 227.23 128.978 241.79 135 235z"/>
<path style="fill:#fcfcfc; stroke:none;" d="M135 235C137.276 237.604 140.683 236.999 144 237L164 237L248 237C239.882 233.593 226.797 236 218 236L164 236C154.559 236 144.222 237.196 135 235z"/>
<path style="fill:#d6d6d6; stroke:none;" d="M132 237C135.959 238.661 140.74 238 145 238L168 238L252 238C248.041 236.339 243.26 237 239 237L216 237L132 237z"/>
<path style="fill:#d8d8d8; stroke:none;" d="M123 244C127.215 245.769 132.464 245 137 245L165 245L264 245C259.785 243.231 254.536 244 250 244L222 244L123 244z"/>
<path style="fill:#e2e2e2; stroke:none;" d="M112 254C116.72 255.981 122.92 255 128 255L160 255L274 255C269.28 253.019 263.08 254 258 254L226 254L112 254z"/>
<path style="fill:#c4c4c4; stroke:none;" d="M116 255C120.72 256.981 126.92 256 132 256L164 256L275 256C270.28 254.019 264.08 255 259 255L227 255L116 255z"/>
</svg>
